<svg height="1102" width="720" xmlns="http://www.w3.org/2000/svg">
<rect height="1102" fill="#555" width="720"></rect>
<text fill="#7f7" font-family="Courier New" font-size="12" xml:space="preserve">
<tspan x="10" y="26">10 megabytes installed</tspan>
<tspan x="10" y="42"></tspan>
<tspan x="10" y="58">node_modules</tspan>
<tspan x="10" y="74">└─┬ changelog-maker@2.2.5 </tspan>
<tspan x="10" y="90">  ├─┬ async@2.1.5 </tspan>
<tspan x="10" y="106">  │ └── lodash@4.17.4 </tspan>
<tspan x="10" y="122">  ├─┬ bl@1.2.0 </tspan>
<tspan x="10" y="138">  │ └─┬ readable-stream@2.2.9 </tspan>
<tspan x="10" y="154">  │   ├── buffer-shims@1.0.0 </tspan>
<tspan x="10" y="170">  │   ├── core-util-is@1.0.2 </tspan>
<tspan x="10" y="186">  │   ├── inherits@2.0.3 </tspan>
<tspan x="10" y="202">  │   ├── isarray@1.0.0 </tspan>
<tspan x="10" y="218">  │   ├── process-nextick-args@1.0.7 </tspan>
<tspan x="10" y="234">  │   ├── string_decoder@1.0.0 </tspan>
<tspan x="10" y="250">  │   └── util-deprecate@1.0.2 </tspan>
<tspan x="10" y="266">  ├─┬ chalk@1.1.3 </tspan>
<tspan x="10" y="282">  │ ├── ansi-styles@2.2.1 </tspan>
<tspan x="10" y="298">  │ ├── escape-string-regexp@1.0.5 </tspan>
<tspan x="10" y="314">  │ ├─┬ has-ansi@2.0.0 </tspan>
<tspan x="10" y="330">  │ │ └── ansi-regex@2.1.1 </tspan>
<tspan x="10" y="346">  │ ├── strip-ansi@3.0.1 </tspan>
<tspan x="10" y="362">  │ └── supports-color@2.0.0 </tspan>
<tspan x="10" y="378">  ├─┬ commit-stream@1.0.2 </tspan>
<tspan x="10" y="394">  │ └── through2@2.0.3 </tspan>
<tspan x="10" y="410">  ├─┬ debug@2.6.4 </tspan>
<tspan x="10" y="426">  │ └── ms@0.7.3 </tspan>
<tspan x="10" y="442">  ├─┬ ghauth@3.2.1 </tspan>
<tspan x="10" y="458">  │ ├─┬ application-config@1.0.1 </tspan>
<tspan x="10" y="474">  │ │ └── application-config-path@0.1.0 </tspan>
<tspan x="10" y="490">  │ ├─┬ bl@1.1.2 </tspan>
<tspan x="10" y="506">  │ │ └─┬ readable-stream@2.0.6 </tspan>
<tspan x="10" y="522">  │ │   └── string_decoder@0.10.31 </tspan>
<tspan x="10" y="538">  │ ├─┬ hyperquest@2.0.0 </tspan>
<tspan x="10" y="554">  │ │ ├─┬ duplexer2@0.0.2 </tspan>
<tspan x="10" y="570">  │ │ │ └─┬ readable-stream@1.1.14 </tspan>
<tspan x="10" y="586">  │ │ │   ├── isarray@0.0.1 </tspan>
<tspan x="10" y="602">  │ │ │   └── string_decoder@0.10.31 </tspan>
<tspan x="10" y="618">  │ │ └─┬ through2@0.6.5 </tspan>
<tspan x="10" y="634">  │ │   └─┬ readable-stream@1.0.34 </tspan>
<tspan x="10" y="650">  │ │     ├── isarray@0.0.1 </tspan>
<tspan x="10" y="666">  │ │     └── string_decoder@0.10.31 </tspan>
<tspan x="10" y="682">  │ ├─┬ mkdirp@0.5.1 </tspan>
<tspan x="10" y="698">  │ │ └── minimist@0.0.8 </tspan>
<tspan x="10" y="714">  │ ├─┬ read@1.0.7 </tspan>
<tspan x="10" y="730">  │ │ └── mute-stream@0.0.7 </tspan>
<tspan x="10" y="746">  │ └── xtend@4.0.1 </tspan>
<tspan x="10" y="762">  ├─┬ ghissues@1.1.3 </tspan>
<tspan x="10" y="778">  │ └─┬ ghutils@3.2.1 </tspan>
<tspan x="10" y="794">  │   └─┬ jsonist@1.3.0 </tspan>
<tspan x="10" y="810">  │     ├─┬ bl@1.0.3 </tspan>
<tspan x="10" y="826">  │     │ └─┬ readable-stream@2.0.6 </tspan>
<tspan x="10" y="842">  │     │   └── string_decoder@0.10.31 </tspan>
<tspan x="10" y="858">  │     ├─┬ hyperquest@1.2.0 </tspan>
<tspan x="10" y="874">  │     │ └─┬ through2@0.6.5 </tspan>
<tspan x="10" y="890">  │     │   └─┬ readable-stream@1.0.34 </tspan>
<tspan x="10" y="906">  │     │     └── isarray@0.0.1 </tspan>
<tspan x="10" y="922">  │     └── json-stringify-safe@5.0.1 </tspan>
<tspan x="10" y="938">  ├─┬ gitexec@1.0.0 </tspan>
<tspan x="10" y="954">  │ └─┬ bl@1.0.3 </tspan>
<tspan x="10" y="970">  │   └─┬ readable-stream@2.0.6 </tspan>
<tspan x="10" y="986">  │     └── string_decoder@0.10.31 </tspan>
<tspan x="10" y="1002">  ├─┬ list-stream@1.0.1 </tspan>
<tspan x="10" y="1018">  │ └─┬ readable-stream@2.0.6 </tspan>
<tspan x="10" y="1034">  │   └── string_decoder@0.10.31 </tspan>
<tspan x="10" y="1050">  ├── minimist@1.2.0 </tspan>
<tspan x="10" y="1066">  ├── pkg-to-id@0.0.3 </tspan>
<tspan x="10" y="1082">  └── split2@2.1.1</tspan>
</text>
</svg>
